<?xml version="1.0" encoding="UTF-8"?>
<svg width="636.95" height="589.13" enable-background="new 0 0 841.89 595.28" viewBox="0 0 636.95 589.12997"
    xmlns="http://www.w3.org/2000/svg">
    <g transform="translate(-125.52 -6.7522)">
        <path
            d="m403.433,212.37v-.006l-1.004-.497c-5.357-2.586-11.257-4.287-17.526-4.88-11.083-1.049-21.673,1.496-30.622,6.678-6.13-3.477-13.073-5.742-20.542-6.449-10.298-.973-20.17,1.161-28.698,5.629-.084.044-.17.095-.251.135-.207.162-.346.414-.346.697 0,.493.391.89.888.89 .046,0 .091-.007.139-.017l.061-.014c4.585-.848 9.368-1.088 14.243-.627 13.682,1.293 25.609,5.521 33.974,15.011 .436.455.823.426 1.265-.025 10.524-12.2 26.663-17.021 44.006-15.382 .968.094 1.921.213 2.871.356 .33.05.836.134 1.133.167 .572.062.88-.398.88-.891-.002-.335-.145-.614-.471-.775z"
            fill="#545454" />
        <path
            d="m383.325,255.298c-.055-.029-.106-.045-.154-.066-10.516-4.349-22.019-6.758-34.093-6.758-19.293,0-37.155,6.127-51.756,16.525-11.147-4.994-23.498-7.777-36.497-7.777-18.485,0-35.648,5.617-49.894,15.238l-.149.104c-.304.234-.509.608-.509,1.037 0,.729.592,1.324 1.323,1.324 .086,0 .174-.012.259-.03 .057-.015.107-.028.161-.048 8.166-2.456 16.832-3.791 25.798-3.791 23.836,0 45.083,5.633 61.08,20.68 .038.029.071.066.111.103 .233.206.53.326.863.326 .413,0 .775-.19 1.018-.487 .006.004.515-.719.773-1.07 16.247-22.216 43.031-33.172 72.846-33.172 2.128,0 4.246.08 6.337.225l1.903.143c.726,0 1.323-.591 1.323-1.324 .001-.522-.303-.974-.743-1.182z"
            fill="#A9A9A9" />
        <path
            d="m127.895,328.375c1.584-4.502 3.853-8.447 6.814-11.806 2.966-3.348 6.602-5.988 10.921-7.905 4.308-1.899 9.165-2.871 14.56-2.871 5.465,0 10.34.972 14.62,2.871 4.281,1.917 7.905,4.558 10.87,7.905 2.968,3.358 5.235,7.304 6.818,11.806s2.369,9.401 2.369,14.675c0,5.129-.792,9.936-2.369,14.372-1.583,4.433-3.85,8.319-6.818,11.604-2.965,3.289-6.589,5.877-10.87,7.74-4.28,1.881-9.155,2.82-14.62,2.82-5.395,0-10.251-.939-14.56-2.82-4.319-1.863-7.955-4.451-10.921-7.74-2.961-3.285-5.23-7.172-6.814-11.604-1.579-4.437-2.372-9.243-2.372-14.372-.001-5.274.793-10.171 2.372-14.675zm14.175,23.323c.689,2.787 1.798,5.309 3.311,7.553s3.491,4.026 5.925,5.364c2.431,1.372 5.4,2.042 8.884,2.042 3.496,0 6.463-.67 8.897-2.042 2.435-1.338 4.408-3.127 5.923-5.364 1.516-2.244 2.616-4.766 3.307-7.553 .693-2.809 1.038-5.682 1.038-8.648 0-3.103-.345-6.083-1.038-8.988s-1.791-5.475-3.307-7.762c-1.515-2.276-3.488-4.084-5.923-5.44-2.435-1.332-5.401-2.006-8.897-2.006-3.484,0-6.453.674-8.884,2.006-2.434,1.356-4.418,3.164-5.925,5.44-1.513,2.287-2.622,4.862-3.311,7.762s-1.04,5.886-1.04,8.988c0,2.967.348,5.84 1.04,8.648z"
            fill="#A9A9A9" />
        <path
            d="m214.588,326.956v6.505h.193c1.723-2.775 3.892-4.763 6.526-6.032 2.634-1.238 5.531-1.869 8.697-1.869 4.015,0 7.464.763 10.369,2.277s5.3,3.522 7.21,6.021c1.902,2.505 3.321,5.411 4.244,8.744 .92,3.323 1.383,6.812 1.383,10.436 0,3.409-.462,6.695-1.383,9.859s-2.322,5.969-4.196,8.4-4.218,4.384-7.012,5.825c-2.801,1.452-6.076,2.163-9.83,2.163-3.157,0-6.074-.638-8.741-1.906-2.676-1.287-4.856-3.183-6.576-5.684h-.194v24.185h-14.021v-68.924h13.331zm18.227,40.49c1.547-.92 2.794-2.119 3.749-3.598 .955-1.495 1.626-3.211 2.033-5.202 .392-1.974.586-3.982.586-6.013 0-2.043-.216-4.045-.64-6.032-.433-1.976-1.139-3.74-2.121-5.283-.996-1.552-2.265-2.786-3.807-3.759-1.543-.953-3.438-1.43-5.68-1.43-2.31,0-4.231.477-5.778,1.43-1.553.973-2.803,2.19-3.754,3.707s-1.633,3.268-2.03,5.232c-.39,1.977-.593,4.019-.593,6.135 0,2.03.218,4.039.65,6.013 .425,1.991 1.117,3.707 2.072,5.202 .955,1.479 2.222,2.678 3.804,3.598 1.582.913 3.495,1.371 5.728,1.371 2.309,0 4.23-.458 5.781-1.371z"
            fill="#A9A9A9" />
        <path
            d="m273.926,365.768c2.101,2.038 5.135,3.05 9.085,3.05 2.825,0 5.265-.693 7.306-2.112s3.294-2.922 3.762-4.491h12.345c-1.979,6.104-5.012,10.498-9.091,13.129-4.086,2.634-9.029,3.942-14.824,3.942-4.013,0-7.633-.638-10.862-1.906-3.222-1.287-5.949-3.127-8.199-5.492-2.231-2.365-3.967-5.195-5.183-8.481-1.219-3.303-1.833-6.922-1.833-10.878 0-3.816.631-7.369 1.883-10.67 1.243-3.285 3.03-6.138 5.334-8.543s5.053-4.305 8.246-5.683 6.736-2.072 10.613-2.072c4.353,0 8.142.84 11.361,2.519 3.228,1.691 5.88,3.938 7.965,6.769 2.067,2.834 3.566,6.062 4.485,9.688 .922,3.615 1.247,7.399.986,11.355h-36.844c.206,4.537 1.353,7.833 3.465,9.876zm15.851-26.876c-1.678-1.829-4.233-2.762-7.66-2.762-2.232,0-4.097.382-5.575,1.133-1.481.76-2.669,1.706-3.562,2.823-.887,1.131-1.505,2.306-1.868,3.546-.363,1.258-.586,2.385-.649,3.37h22.819c-.664-3.561-1.819-6.26-3.505-8.11z"
            fill="#A9A9A9" />
        <path
            d="m326.239,326.956v7.105h.306c1.769-2.958 4.079-5.121 6.904-6.479 2.831-1.342 5.738-2.023 8.694-2.023 3.752,0 6.836.521 9.239,1.532 2.404,1.017 4.296,2.435 5.678,4.243s2.353,4.019 2.917,6.618c.56,2.609.841,5.488.841,8.648v31.404h-14.03v-28.83c0-4.221-.665-7.366-1.978-9.442-1.312-2.066-3.656-3.115-7.009-3.115-3.822,0-6.594,1.136-8.297,3.406-1.719,2.28-2.564,6.023-2.564,11.22v26.762h-14.034v-51.05h13.333z"
            fill="#A9A9A9" />
        <path
            d="m369.572,328.375c1.579-4.502 3.857-8.447 6.811-11.806 2.971-3.348 6.609-5.988 10.921-7.905 4.316-1.899 9.174-2.871 14.571-2.871 5.463,0 10.339.972 14.614,2.871 4.287,1.917 7.917,4.558 10.869,7.905 2.969,3.358 5.238,7.304 6.823,11.806 1.583,4.504 2.368,9.401 2.368,14.675 0,5.129-.785,9.936-2.368,14.372-1.585,4.433-3.854,8.319-6.823,11.604-2.952,3.289-6.582,5.877-10.869,7.74-4.275,1.881-9.151,2.819-14.614,2.819-5.397,0-10.255-.938-14.571-2.819-4.312-1.863-7.95-4.451-10.921-7.74-2.953-3.285-5.232-7.172-6.811-11.604-1.577-4.437-2.367-9.243-2.367-14.372 0-5.274.79-10.171 2.367-14.675zm14.171,23.323c.693,2.787 1.8,5.309 3.314,7.553s3.49,4.026 5.933,5.364c2.427,1.372 5.39,2.042 8.884,2.042s6.453-.67 8.895-2.042c2.435-1.338 4.404-3.127 5.918-5.364 1.525-2.244 2.618-4.766 3.307-7.553 .697-2.809 1.045-5.683 1.045-8.648 0-3.103-.348-6.083-1.045-8.988-.689-2.899-1.782-5.475-3.307-7.762-1.514-2.276-3.483-4.084-5.918-5.44-2.442-1.332-5.401-2.006-8.895-2.006-3.495,0-6.458.674-8.884,2.006-2.442,1.356-4.425,3.164-5.933,5.44-1.514,2.287-2.621,4.862-3.314,7.762s-1.027,5.886-1.027,8.988c0,2.966.342,5.84 1.027,8.648z"
            fill="
#767676" />
        <path
            d="m495.077,319.396c.816-.896 2.195-1.342 4.103-1.342 1.774,0 3.486.095 5.133.281v-10.445c-1.186-.084-2.402-.164-3.656-.264-1.25-.092-2.504-.146-3.754-.146-5.724,0-10.01,1.467-12.841,4.353-2.834,2.896-4.238,6.607-4.238,11.157v3.967h-17.101v-3.075c0-2.094.411-3.59 1.243-4.484 .817-.896 2.186-1.342 4.085-1.342 1.796,0 3.498.095 5.15.281v-10.447c-1.184-.084-2.413-.164-3.658-.264-1.251-.092-2.505-.146-3.755-.146-5.73,0-10.014,1.467-12.844,4.353-2.835,2.896-4.253,6.607-4.253,11.157v3.967h-8.389v9.372h8.389v41.678h14.031v-41.678h17.101v41.678h14.018v-41.678h9.68v-9.372h-9.68v-3.075c0-2.095.407-3.591 1.236-4.486z"
            fill="
#767676" />
        <path d="m524.07 326.96v51.05h-14.038v-51.05h14.038z" fill="
#767676" />
        <path
            d="m555.63,336.13c-2.237,0-4.121.507-5.64,1.537-1.521,1.025-2.742,2.324-3.696,3.941-.957,1.625-1.643,3.402-2.013,5.337-.411,1.944-.608,3.869-.608,5.786 0,1.838.197,3.715.608,5.633 .37,1.896 1.023,3.637 1.906,5.185 .898,1.543 2.087,2.812 3.604,3.794 1.515.976 3.362,1.475 5.54,1.475 3.366,0 5.944-.92 7.752-2.805 1.818-1.881 2.958-4.397 3.406-7.561h13.532c-.923,6.783-3.549,11.956-7.898,15.509-4.354,3.557-9.913,5.324-16.696,5.324-3.821,0-7.325-.638-10.527-1.906-3.19-1.287-5.902-3.088-8.143-5.396-2.236-2.292-3.979-5.061-5.239-8.239-1.235-3.205-1.858-6.698-1.858-10.526 0-3.942.556-7.62 1.714-11.004 1.156-3.398 2.854-6.328 5.084-8.803 2.246-2.457 4.975-4.4 8.193-5.778 3.228-1.375 6.927-2.072 11.077-2.072 3.021,0 5.929.396 8.733,1.185 2.797.799 5.31,1.997 7.517,3.614 2.196,1.607 3.994,3.63 5.369,6.014 1.389,2.405 2.191,5.254 2.382,8.558h-13.734c-.921-5.871-4.382-8.802-10.365-8.802z"
            fill="
#767676" />
        <path
            d="m601.777,365.768c2.122,2.038 5.154,3.05 9.096,3.05 2.835,0 5.262-.693 7.315-2.112 2.031-1.418 3.296-2.922 3.751-4.491h12.345c-1.962,6.104-4.997,10.498-9.078,13.129-4.088,2.634-9.024,3.942-14.816,3.942-4.026,0-7.648-.638-10.872-1.906-3.226-1.287-5.957-3.127-8.209-5.492-2.221-2.365-3.948-5.195-5.181-8.481-1.217-3.303-1.825-6.922-1.825-10.878 0-3.816.637-7.369 1.88-10.67 1.262-3.285 3.028-6.138 5.343-8.543 2.302-2.398 5.042-4.305 8.242-5.683s6.739-2.072 10.622-2.072c4.334,0 8.128.84 11.354,2.519 3.238,1.691 5.882,3.938 7.949,6.769s3.571,6.062 4.484,9.688c.935,3.615 1.269,7.399 1.001,11.354l-36.849.001c.194,4.537 1.358,7.833 3.448,9.876zm15.858-26.876c-1.665-1.829-4.213-2.762-7.645-2.762-2.229,0-4.104.382-5.577,1.133-1.475.76-2.677,1.706-3.561,2.823-.887,1.131-1.521,2.306-1.885,3.546-.367,1.258-.571,2.384-.638,3.37h22.821c-.655-3.561-1.825-6.26-3.515-8.11z"
            fill="
#767676" />
        <path
            d="m651.012,351.311c.793-2.421 1.967-4.519 3.517-6.286 1.554-1.788 3.502-3.195 5.797-4.223s4.936-1.544 7.912-1.544c3.033,0 5.679.509 7.938,1.544 2.274,1.027 4.203,2.435 5.758,4.223 1.572,1.768 2.731,3.865 3.516,6.286 .781,2.419 1.182,5.019 1.182,7.803 0,2.771-.4,5.366-1.182,7.761-.784,2.409-1.943,4.487-3.516,6.271-1.555,1.781-3.483,3.183-5.758,4.18-2.259.994-4.904,1.491-7.938,1.491-2.977,0-5.624-.497-7.912-1.491-2.295-.997-4.243-2.398-5.797-4.18s-2.724-3.861-3.517-6.271c-.777-2.395-1.174-4.99-1.174-7.761 0-2.785.396-5.385 1.174-7.803zm6.347,13.92c.612,1.781 1.452,3.267 2.525,4.473 1.074,1.192 2.329,2.102 3.772,2.747 1.449.634 2.972.964 4.58.964 1.621,0 3.139-.33 4.573-.964 1.433-.646 2.694-1.555 3.772-2.747 1.082-1.206 1.906-2.691 2.529-4.473 .608-1.767.921-3.828.921-6.118s-.312-4.338-.921-6.113c-.623-1.778-1.447-3.282-2.529-4.503s-2.34-2.151-3.772-2.783c-1.435-.637-2.952-.964-4.573-.964-1.608,0-3.131.327-4.58.964-1.443.632-2.698,1.562-3.772,2.783s-1.913,2.725-2.525,4.503c-.608,1.775-.925,3.827-.925,6.113s.317,4.352.925,6.118z"
            fill="
#767676" />
        <path
            d="m695.896,340.142v7.993h.144c1.499-3.088 3.368-5.357 5.559-6.816 2.195-1.478 4.975-2.156 8.349-2.061v6.604c-2.482,0-4.605.338-6.362,1.03-1.764.678-3.183,1.686-4.261,2.987-1.081,1.316-1.852,2.927-2.339,4.792-.487,1.9-.729,4.045-.729,6.49v16.845h-6.226v-37.864h5.865z"
            fill="
#767676" />
        <path
            d="m741.016,388.712c-2.856,3.068-7.282,4.619-13.327,4.619-1.763,0-3.557-.204-5.39-.594s-3.498-1.037-4.995-1.905c-1.487-.878-2.727-2.021-3.688-3.443-.987-1.426-1.519-3.143-1.603-5.203h6.207c.041,1.118.411,2.079 1.071,2.85 .646.792 1.47,1.422 2.423,1.91 .939.506 1.97.854 3.106,1.062 1.118.218 2.203.323 3.227.323 2.034,0 3.772-.341 5.207-1.041 1.396-.724 2.577-1.694 3.508-2.944 .921-1.239 1.592-2.747 2.013-4.496 .411-1.752.617-3.691.617-5.801v-2.485h-.147c-1.086,2.351-2.698,4.074-4.865,5.173-2.167,1.09-4.478,1.64-6.923,1.64-2.83,0-5.287-.514-7.402-1.544-2.094-1.019-3.86-2.408-5.28-4.128-1.408-1.734-2.471-3.762-3.168-6.083-.723-2.321-1.078-4.777-1.078-7.355 0-2.251.301-4.561.893-6.93s1.549-4.518 2.929-6.445c1.367-1.925 3.182-3.512 5.415-4.744 2.247-1.266 5.002-1.889 8.283-1.889 2.386,0 4.587.521 6.585,1.576 2.01,1.057 3.561,2.625 4.693,4.723h.066v-5.415h5.865v34.646c0,6.19-1.411,10.847-4.242,13.923zm-7.953-17.034c1.44-.858 2.589-1.974 3.476-3.381 .885-1.39 1.525-2.955 1.94-4.715s.615-3.509.615-5.273c0-1.66-.19-3.292-.575-4.916-.41-1.606-1.019-3.069-1.873-4.345-.862-1.298-1.959-2.344-3.333-3.12-1.365-.773-3.04-1.178-4.97-1.178-2.005,0-3.717.393-5.144,1.141-1.408.755-2.566,1.782-3.469,3.036-.898,1.275-1.565,2.746-1.99,4.403-.403,1.657-.62,3.392-.62,5.195 0,1.716.183,3.421.517,5.126 .349,1.716.932,3.256 1.76,4.646 .833,1.407 1.921,2.522 3.293,3.381 1.379.861 3.077,1.283 5.13,1.283 2.068,0 3.802-.422 5.243-1.283z"
            fill="
#767676" />
        <path
            d="m524.57 314.25c0 4.136-3.37 7.498-7.509 7.498s-7.503-3.362-7.503-7.498c0-4.146 3.359-7.505 7.503-7.505s7.509 3.359 7.509 7.505z"
            fill="
#767676" />
        <path
            d="m647.55 373.14c0 3.018-2.445 5.467-5.47 5.467s-5.479-2.449-5.479-5.467 2.457-5.474 5.479-5.474 5.47 2.448 5.47 5.474z"
            fill="
#767676" />
        <path
            d="m749.427,332.725v7.526h-1.432v-7.526h-2.721v-1.158h6.873v1.158h-2.72zm11.607,7.526v-7.251h-.041l-2.848,7.251h-.905l-2.845-7.251h-.043v7.251h-1.434v-8.685h2.214l2.594,6.598 2.55-6.598h2.192v8.685h-1.434z"
            fill="
#767676" />
    </g>
</svg>