<?xml version="1.0" encoding="UTF-8"?>
<svg viewBox="0 0 256 256" xmlns="http://www.w3.org/2000/svg" fill="#A9A9A9">
    <g transform="matrix(5.984 0 0 5.984 4.6066 63.033)">
        <path
            d="m14.718.03503h-14.3l-.418,5.47699h.445c.32-4.10199.672-4.82 4.512-4.82h1.367c.473.07403.473.375.473.945v13.47998c0,.895-.075,1.168-2.161,1.168h-.703v.5981c1.188-.0231 2.426-.0471 3.641-.0471s2.453.024 3.64.0471v-.5981h-.691c-2.05501,0-2.129-.273-2.129-1.168v-13.47998c0-.54699 0-.84399.446-.945h1.359c3.789,0 4.16.71399 4.48,4.82h.446" />
        <path
            d="m27.144,16.02h-.445c-.543,3.672-.863,5.668-5.219,5.668h-3.437c-.989,0-1.036-.125-1.036-.977v-6.922h2.336c2.336,0 2.559.856 2.559,2.946h.398v-6.442h-.398c0,2.055-.223,2.895-2.559,2.895h-2.336v-6.13697c0-.836.047-.961 1.036-.961h3.386c3.832,0 4.278,1.52301 4.625,4.79697h.446l-.594-5.47697h-12.539v.68c1.754,0 2.035,0 2.035,1.11297v13.364c0,1.1131-.277,1.1131-2.035,1.1131v.5979h12.887" />
        <path
            d="m33.82,7.51202 3.664-5.29699c.367-.52002 1.113-1.59003 3.145-1.61701v-.59802c-.567.047-1.508.047-2.102.047-.816,0-1.832,0-2.449-.047v.59802c.793.07397.988.57001.988.969 0,.29602-.121.49603-.297.742l-3.269,4.74201-3.664-5.36298c-.172-.27002-.196-.34802-.196-.422 0-.22302.27-.64502 1.09-.66803v-.59802c-.793.047-2.004.047-2.82.047-.641,0-1.879,0-2.477-.047v.59802c1.36,0 1.805.05103 2.352.82001l4.777,7.01599-4.308,6.29308c-1.063,1.539-2.672,1.5659-3.145,1.5659v.5981c.566-.047 1.508-.047 2.102-.047 .668,0 1.832,0 2.449.047v-.5981c-.766-.0739-.988-.57-.988-.969 0-.32.121-.496.246-.672l3.961-5.78097 4.308,6.33197c.195.2741.195.348.195.422 0,.195-.222.621-1.089.672v.598c.793-.047 2.004-.047 2.82-.047 .641,0 1.879,0 2.48.047v-.598c-1.586,0-1.836-.121-2.328-.8199" />
    </g>
</svg>