<?xml version="1.0" encoding="UTF-8"?>
<svg enable-background="new 130.3515625 177.4335938 800 151.6611328" viewBox="130.3515625 177.4335938 800 151.6611328"
    xmlns="http://www.w3.org/2000/svg">
    <path
        d="m348.61 216.2c-3.9141 0.38672-20.208 4.0371-25.685 5.2109-5.8643 1.5606-59.441 42.953-62.961 53.117-0.78027 3.5176-1.1714 8.9297-1.1714 14.016l-0.39258 8.2148c0 5.8613 1.6284 15.314 2.4082 20.396 3.5225 0.78516 29.015 0.09961 33.707 0.87891l-0.57715 10.514c-4.584-0.33398-36.956-0.25586-55.45-0.25586-9.3882 0-39.567 1.0352-48.84 0.75586l1.7529-9.998c5.0845-0.39453 26.136 0.9082 30.764-3.9766 2.2988-2.4238 1.5664-5.0215 1.5664-19.098v-6.6465c0-3.1289 0-8.998-0.78467-14.475-1.9541-5.8672-49.144-64.789-61.267-74.172-3.5225-1.1719-25.58-3.3779-31.054-4.5537l-0.27246-9.0068c2.731-1.3691 27.259 0.33301 51.062-0.54785 15.644-0.57813 51.337 0 55.741 0.52441l-1.1284 7.9375c-4.6914 1.1748-27.292 1.6094-33.16 3.1719 15.253 22.682 39.369 51.883 47.191 63.225 4.3042-6.2559 42.11-32.266 43.282-41.26-5.8682-1.1777-25.292-3.9727-28.421-3.9727l-1.8579-10.24c5.3247-0.83301 33.323 0 47.242 0 12.013 0 37.682 0 44.976 0.59766l-6.6699 9.6426"
        fill="#A9A9A9" />
    <path
        d="m364.95 245.76-0.24414-1.5537c-4.4365 10.354-11.971 26.624-13.448 30.565l24.275-0.01074c-2.959-7.6416-8.3643-22.594-10.583-29.001m64.468 78.407c-1.7217-0.24902-21.318-0.24609-28.464-0.24609-4.1934 0-25.536-0.12402-29.236-0.12402l1.1094-9.1582c4.9336-0.24512 14.104-2.2422 18.297-2.7344-2.7109-6.1582-11.657-25.722-13.629-29.418-5.1768 0-23.794 0.58301-28.971 1.5684-0.98438 1.7266-8.0518 8.6572-9.2803 18.022 3.4522 0.73828 10.071 2.1621 14.014 2.6533l-1.458 9.3594c-4.1885-0.24609-20.9 0.24512-24.844 0-3.7012 0-20.874 0.04102-24.079 0.5332l3.0527-9.8926c3.9414-0.49121 13.029-3.3164 16.476-4.0518 5.1787-7.3926 29.151-54.253 31.125-58.691-3.208-0.74121-8.6514-3.3174-12.106-3.8096l-0.47363-6.7715c4.1914 0.25 25.021 0.875 27.234 0.76465 4.956-0.24219 23.353-0.15137 27.545-0.39355l-1.5537 6.6504c-3.6963 0.24219-9.71 2.0449-13.163 2.7832 1.7256 5.1758 8.5898 21.862 13.767 34.186 3.9443 8.877 10.49 26.268 16.651 36.375 4.1885 0.73828 13.802 3.5606 18.238 3.8057l0.24902 2.4697-0.5 6.1201z"
        fill="#A9A9A9" />
    <path
        d="m573.8 298.8c-3.3994-0.26172-19.757-0.23828-28.121 0-6.708 0.18945-22.644-0.60938-30.229-0.28027l-0.5791-9.294c2.6133-0.26367 18.933-1.373 22.068-1.9004 1.0449-4.9658 0.54492-12.013 0.54492-18.02l-0.40332-10.943c-8.3672 0-63.68 2.8779-66.034 3.1348l-4.041 0.52734c0 14.909 0.78418 19.62 1.831 25.111 4.4482 0.7793 20.403 1.8262 23.8 2.3535l-0.20605 10.129c-3.9258-0.2627-28.46 0-36.046 0-9.1504 0-31.407-0.19727-36.639 0.06445l0.70898-10.457c4.1846-0.26367 20.004-1.8213 23.404-2.3418 0.52344-6.8076 0.78418-17.523 0.78418-28.771v-13.861c0-4.707-0.26074-18.307-0.52441-23.018-3.4004-0.51563-19.22-1.5762-23.927-1.8369l-0.83496-7.919c3.1377 0.26563 24.976-0.33301 36.48-0.33301 10.724 0 35.038 0.21191 37.915-0.05273l-0.85254 8.3047c-4.9688 0.26074-21.446 1.5684-24.322 2.0908-0.78809 3.9268-1.5723 7.3281-1.5723 19.879l-0.38574 6.543c4.707 0 63.053-0.22949 70.319-1.2646v-9.0127c0-11.506 1.7861-23.946 0.48047-27.351-2.8789-0.78027-18.467-2.9756-23.439-3.2402l0.69727-8.3486c3.1396 0.26367 17.834 0.1748 28.815 0.4375 11.508 0 28.227 0.47266 31.625-0.0498l-0.77246 6.876c-3.3984 0.26367-18.562 4.0977-18.562 4.0977s-1.0352 7.166-0.27441 17.474c0.62793 8.5596 0.81934 25.396 0.81934 25.396 0.43359 18.746 1.5898 33.895 0.5459 34.683-1.2578 0.93848 12.007 1.7461 15.665 2.2725l1.4316 2.4844-0.1709 6.4375"
        fill="#A9A9A9" />
    <path
        d="m687.67 257.3c0.94727-26.433-19.741-33.469-45.876-31.675-13.675 0.93945-41.503 8.169-41.503 31.675 0 23.23 21.347 35.811 49.83 33.326 22.045-1.918 33.614-10.035 36.454-21.313l1.0947-12.013m21.025-2.1846c1.2412 31.941-27.925 47.785-65.808 47.785-15.766 0-34.955-3.0039-51.338-12.834-12.781-7.6699-14.897-17.618-14.897-30.062 0-25.722 28.001-47.044 70.868-46.767 16.314 0 32.042 2.4883 44.754 12.402 11.344 8.8467 13.26 13.24 15.327 22.92l1.0938 6.5547z"
        fill="#A9A9A9" />
    <path
        d="m888.19 308.91-9.0742-0.77832-0.09668-19.654 11.488 1.4316 10.296 0.47754-2.8574 19.245-9.7559-0.72168m11.688-34.718-16.934-1.6436c1.7764-8.5625 0.23047-74.296 0.09277-81.309l-0.87207-13.809c4.7178 0.92969 4.0029 0.44141 23.909 2.5352 12.113 1.2715 13.694 1.8144 17.681 1.9717l-5.2031 16.375c-4.4394 13.097-17.308 71.504-18.674 75.879z"
        fill="#A9A9A9" />
    <path
        d="m844.95 246.38c1.8008-28.721-25.87-39.183-55.702-37.138-15.612 1.0693-44.783 10.302-44.783 37.138 0 26.517 24.412 39.885 56.938 37.053 25.158-2.1924 35.632-11.657 41.365-24.49 0 0 1.6396-3.8262 2.1816-12.562m22.568-4.2422c2.2334 29.91-32.285 54.754-75.542 54.754-17.993 0-33.312-2.1816-51.062-13.921-14.598-9.6572-21.571-18.024-23.393-34.501-3.2285-29.183 31.967-53.706 80.904-53.391 18.629 0 36.578 2.834 51.099 14.157 12.944 10.096 15.209 19.677 17.572 30.735l0.4209 2.166z"
        fill="#A9A9A9" />
    <path
        d="m918.8 299.54h1.752c1.5195 0 2.9912-0.07715 2.9912-1.8779 0-1.5488-1.3447-1.7305-2.501-1.7305h-2.2422v3.6084m-1.7012-5.0029h4.2256c2.6553 0 3.919 1.0557 3.919 3.1992 0 2.0371-1.2881 2.8906-2.9639 3.0674l3.2256 4.9541h-1.832l-3.041-4.8242h-1.832v4.8242h-1.7012v-11.221zm3.6572 13.826c4.3857 0 7.8926-3.5606 7.8926-8.2031s-3.5068-8.2031-7.8926-8.2031c-4.4082 0-7.8916 3.5606-7.8916 8.2031s3.4834 8.2031 7.8916 8.2031zm0-17.8c5.2109 0 9.5967 4.1289 9.5967 9.5967s-4.3857 9.5967-9.5967 9.5967c-5.2334 0-9.5908-4.1279-9.5908-9.5967s4.3574-9.5967 9.5908-9.5967z"
        fill="#A9A9A9" />
</svg>